<!--?xml version="1.0" standalone="no"?-->
              <svg id="sw-js-blob-svg" viewBox="0 0 100 100" xmlns="http://www.w3.org/2000/svg" version="1.1">
                    <defs> 
                        <linearGradient id="sw-gradient" x1="0" x2="1" y1="1" y2="0">
                            <stop id="stop1" stop-color="rgba(248, 117, 55, 1)" offset="0%"></stop>
                            <stop id="stop2" stop-color="rgba(251, 168, 31, 1)" offset="100%"></stop>
                        </linearGradient>
                    </defs>
                <path fill="url(#sw-gradient)" d="M25.8,-33.2C31.6,-26,33,-16,34.7,-6.1C36.5,3.8,38.6,13.6,35.3,21.5C32.1,29.3,23.5,35.1,14.8,36.4C6.2,37.6,-2.5,34.3,-12,31.5C-21.5,28.7,-31.7,26.4,-37.1,20C-42.6,13.5,-43.3,2.9,-41.2,-7C-39.1,-16.8,-34.2,-25.9,-26.9,-32.8C-19.5,-39.7,-9.8,-44.5,0.1,-44.7C10,-44.9,20.1,-40.4,25.8,-33.2Z" width="100%" height="100%" transform="translate(50 50)" stroke-width="0" style="transition: all 0.3s ease 0s;" stroke="url(#sw-gradient)"></path>
              </svg>